<svg width="31" height="45" viewBox="0 0 31 45" fill="none" xmlns="http://www.w3.org/2000/svg">
<path fill-rule="evenodd" clip-rule="evenodd" d="M0.840537 20.632L4.43805 17.0165C5.02744 16.4233 4.91177 16.2984 5.22481 15.3767C5.9148 13.3453 8.16289 11.5713 9.63243 10.1485C10.9413 8.88126 13.4176 6.27643 14.7806 5.66464C17.2411 4.56029 20.4797 5.02952 22.2428 6.49633C25.1262 8.89528 26.1516 13.132 23.5641 16.6068C23.3875 16.8439 23.2562 17.0677 23.0239 17.2752C22.7092 17.5564 22.6558 17.5416 22.3811 17.8289L16.4453 23.9577C15.1835 25.2677 13.651 26.2856 11.4285 25.0109C10.7165 24.6025 10.7003 24.3715 10.1264 23.939C9.37519 24.538 7.19029 26.5647 6.82705 27.2889C7.4174 28.4465 9.13112 29.5931 10.8401 30.093C12.8766 30.6888 14.7414 30.5962 16.674 29.8736C18.8529 29.0589 21.9706 25.4215 23.8895 23.5618C24.2009 23.26 24.4045 22.9813 24.7158 22.6951C24.8985 22.5271 25.0057 22.4806 25.1852 22.3249C25.3483 22.1832 25.4462 22.0593 25.5969 21.8933C26.1597 21.2731 26.648 20.7468 27.215 20.1236C30.9314 16.0387 30.9542 9.3953 27.736 4.97854C27.0076 3.97896 26.8215 4.023 26.1184 3.21227C24.6789 1.55261 21.3676 0.34476 19.0965 0.0924799C12.6174 -0.627227 9.78822 2.96676 5.82689 6.94556C3.33565 9.44778 0.942776 11.1765 0.183746 14.8267C-0.200316 16.6739 0.017258 19.1842 0.840537 20.632Z" fill="#51A8B1"/>
<path fill-rule="evenodd" clip-rule="evenodd" d="M26.4111 24.0906C25.9821 24.3333 24.0699 26.389 23.6519 26.8229C23.2503 27.2399 22.964 27.4153 22.7543 27.8467C25.8447 29.6405 26.1934 36.1793 21.5502 38.9392C19.1145 40.387 15.821 40.2958 13.4825 38.5187C13.0913 38.2214 12.6816 37.785 12.3658 37.474L6.52359 31.6201C5.71187 30.8961 4.94169 29.2117 5.04728 27.7658C5.17875 25.9652 6.36664 24.8974 7.41652 23.7326C7.80127 23.3057 8.15661 23.1036 8.53616 22.6844C10.3036 20.7324 12.2259 18.0385 15.2616 19.9936L16.399 21.0271C17.2665 20.0612 19.3974 18.1687 19.9061 17.5182C18.498 15.294 13.9115 13.4258 10.1064 15.0694C7.92785 16.0104 7.54926 16.7309 6.28557 18.0198C5.14073 19.1875 4.04934 20.2265 2.95183 21.4459C2.47568 21.975 2.09278 22.1262 1.45777 23.2127C1.01736 23.9662 0.695937 24.6521 0.428373 25.5709C-0.142695 27.5321 -0.0708871 29.3761 0.539161 31.3097C0.80953 32.1668 1.18036 32.9036 1.65664 33.5749C3.2091 35.7629 7.77436 39.9003 9.92137 42.0905C10.7841 42.9706 12.5978 43.9813 14.2931 44.4897C21.2642 46.5804 29.2038 42.0808 30.0224 34.0298C30.2331 31.9581 29.9006 29.9002 29.2086 28.1223C28.6682 26.7339 27.2426 24.648 26.4111 24.0906Z" fill="#51A8B1"/>
</svg>
