<svg width="27" height="25" viewBox="0 0 27 25" fill="none" xmlns="http://www.w3.org/2000/svg">
<path d="M6.42766 24.0051V18.283H2.47589C1.95185 18.283 1.44927 18.0748 1.07872 17.7043C0.708174 17.3337 0.5 16.8311 0.5 16.3071V2.47589C0.5 1.95185 0.708174 1.44927 1.07872 1.07872C1.44927 0.708174 1.95185 0.5 2.47589 0.5H24.2106C24.7347 0.5 25.2373 0.708174 25.6078 1.07872C25.9784 1.44927 26.1865 1.95185 26.1865 2.47589V16.3071C26.1865 16.8311 25.9784 17.3337 25.6078 17.7043C25.2373 18.0748 24.7347 18.283 24.2106 18.283H13.3433L7.27136 24.3549C7.20228 24.4241 7.11418 24.4713 7.01824 24.4905C6.92231 24.5096 6.82285 24.4998 6.73248 24.4623C6.64211 24.4249 6.56489 24.3614 6.51063 24.28C6.45636 24.1986 6.42748 24.103 6.42766 24.0051Z" stroke="black"/>
<path d="M6.42773 12.3553H20.2589M6.42773 6.42761H20.2589" stroke="black" stroke-linecap="round"/>
</svg>
